<svg width="25" height="25" viewBox="0 0 25 25" fill="none" xmlns="http://www.w3.org/2000/svg">
<path fill-rule="evenodd" clip-rule="evenodd" d="M12.5 0C5.60547 0 0 5.60547 0 12.5C0 19.3945 5.60547 25 12.5 25C19.3945 25 25 19.3945 25 12.5C25 5.60547 19.3945 0 12.5 0Z" fill="#FFD31D"/>
<path d="M10.0925 18.2178C8.49584 16.6211 6.90893 15.0098 5.30737 13.4131C5.13159 13.2373 5.13159 12.9443 5.30737 12.7686L7.14818 10.9277C7.32396 10.7519 7.61693 10.7519 7.79273 10.9277L10.4246 13.5596L17.1921 6.7871C17.3728 6.61133 17.6609 6.61133 17.8415 6.7871L19.6872 8.63282C19.8679 8.81347 19.8679 9.10156 19.6872 9.27734L10.7371 18.2178C10.5613 18.3984 10.2732 18.3984 10.0925 18.2178Z" fill="white"/>
</svg>
