<svg width="52" height="52" viewBox="0 0 52 52" fill="none" xmlns="http://www.w3.org/2000/svg">
<rect width="52" height="52" rx="26" fill="#FCFBF4"/>
<path d="M26.0005 18.8765V26.0527H33.1768" stroke="black" stroke-width="1.6349" stroke-linecap="round" stroke-linejoin="round"/>
<path d="M37.8263 24.2585C36.9603 18.5044 31.9955 14.0922 25.9998 14.0922C19.394 14.0922 14.0393 19.4469 14.0393 26.0526C14.0393 32.6584 19.394 38.0131 25.9998 38.0131C30.9035 38.0131 35.1196 35.0612 36.9651 30.8368" stroke="black" stroke-width="1.6349" stroke-linecap="round" stroke-linejoin="round"/>
<path d="M31.9805 30.8369H37.2431C37.3373 30.8369 37.4306 30.8555 37.5177 30.8915C37.6048 30.9276 37.6839 30.9805 37.7505 31.0471C37.8171 31.1137 37.87 31.1929 37.9061 31.2799C37.9421 31.367 37.9607 31.4603 37.9607 31.5545V36.8171" stroke="black" stroke-width="1.6349" stroke-linecap="round" stroke-linejoin="round"/>
</svg>
