<svg width="52" height="52" viewBox="0 0 52 52" fill="none" xmlns="http://www.w3.org/2000/svg">
<rect width="52" height="52" rx="26" fill="#FCFBF4"/>
<path d="M37 19.5183H32.3242C32.2761 19.5183 32.2283 19.5088 32.1839 19.4904C32.1394 19.472 32.099 19.445 32.065 19.411C32.031 19.377 32.0041 19.3367 31.9858 19.2923C31.9675 19.2479 31.9582 19.2004 31.9584 19.1525C31.9589 19.0642 31.9909 18.979 32.0486 18.912L35.3836 15.1186C35.4159 15.0809 35.4561 15.0508 35.5014 15.0304C35.5466 15.0099 35.5959 14.9995 35.6456 15C35.8362 15 35.991 15.1558 35.991 15.3455V21.0238M29.1475 21.0221H25.1149V20.1669C25.1154 19.8743 25.2013 19.5881 25.3624 19.3433C25.5234 19.0986 25.7526 18.9057 26.0218 18.7884L28.2678 17.8112C28.5786 17.6765 28.8333 17.4393 28.9888 17.1396C29.1444 16.8398 29.1913 16.4959 29.1218 16.1657C29.0522 15.8355 28.8704 15.5392 28.607 15.3269C28.3436 15.1146 28.0147 14.9991 27.6757 15H26.6276C26.3148 15.0004 26.0098 15.0971 25.7545 15.2769C25.4992 15.4567 25.3061 15.7108 25.2017 16.0043M26.8607 36.272C27.7428 36.8372 28.7926 37.085 29.8358 36.9741C30.879 36.8632 31.8526 36.4003 32.5948 35.6623L33.2414 35.0188C33.5281 34.7303 33.689 34.3408 33.689 33.9349C33.689 33.5291 33.5281 33.1396 33.2414 32.8511L30.5189 30.1585C30.2319 29.8741 29.8435 29.7144 29.4385 29.7144C29.0335 29.7144 28.645 29.8741 28.358 30.1585C28.0681 30.4439 27.6768 30.604 27.269 30.604C26.8613 30.604 26.47 30.4439 26.1801 30.1585L21.8412 25.8401C21.5544 25.5515 21.3936 25.1621 21.3936 24.7562C21.3936 24.3504 21.5544 23.9609 21.8412 23.6724C22.127 23.3867 22.2874 23.0001 22.2874 22.597C22.2874 22.1939 22.127 21.8073 21.8412 21.5217L19.2209 18.8121C18.931 18.5266 18.5397 18.3665 18.1319 18.3665C17.7242 18.3665 17.3328 18.5266 17.043 18.8121L16.3964 19.4556C15.6416 20.1839 15.1606 21.1477 15.0336 22.1863C14.9067 23.225 15.1414 24.2755 15.6988 25.1627C18.6647 29.5476 22.455 33.32 26.8607 36.272Z" stroke="black" stroke-width="1.83333" stroke-linecap="round" stroke-linejoin="round"/>
</svg>
