<svg width="52" height="52" viewBox="0 0 52 52" fill="none" xmlns="http://www.w3.org/2000/svg">
<rect width="52" height="52" rx="26" fill="#FCFBF4"/>
<path d="M20.5122 31.6168C21.9712 31.6152 23.1772 32.7303 23.324 34.171L23.339 34.4639C23.3407 36.0363 22.0762 37.309 20.5193 37.3112C18.962 37.3131 17.6935 36.0427 17.6915 34.4699C17.6898 32.8908 18.9558 31.6188 20.5122 31.6168ZM39.0542 31.5938C40.6055 31.5919 41.8797 32.8615 41.8819 34.4399C41.8839 36.012 40.6135 37.2862 39.0612 37.2882C37.5028 37.2898 36.2315 36.0181 36.2296 34.4469C36.2279 32.8694 37.4965 31.596 39.0542 31.5938ZM20.5126 31.9664C19.1321 31.9682 18.024 33.0914 18.0255 34.4695C18.0272 35.8407 19.1367 36.9691 20.5188 36.9674C21.9008 36.9655 23.0066 35.8343 23.005 34.4634L22.992 34.2085C22.8635 32.9498 21.8068 31.965 20.5126 31.9664ZM39.0546 31.9434C37.6743 31.9454 36.5669 33.0686 36.5685 34.4465C36.5702 35.8175 37.6788 36.9459 39.0608 36.9444C40.4358 36.9427 41.5497 35.813 41.548 34.4404C41.5461 33.0607 40.4279 31.9417 39.0546 31.9434ZM46.506 28.9479L46.5098 32.0338C46.5105 32.5898 46.0642 33.0341 45.5218 33.035L44.2777 33.0366C43.6586 30.7183 41.5531 29.0068 39.0471 29.0099C36.5458 29.013 34.4446 30.73 33.8314 33.0495L25.7347 33.0596C25.1157 30.7417 23.0112 29.0299 20.51 29.0328C18.0086 29.036 15.9075 30.753 15.2943 33.0725L13.5892 33.0746C13.0469 33.0751 12.5994 32.632 12.5987 32.0759L12.5949 28.9899L46.506 28.9479ZM37.1129 18.3277C36.564 18.3286 36.1272 18.7754 36.1278 19.3172L36.1341 24.3641C36.1348 24.9061 36.5729 25.3516 37.1216 25.3511L43.6197 25.343C44.4549 25.342 44.8872 24.3799 44.4019 23.7561L44.2933 23.6362L39.0351 18.5997L39.0263 18.5909L39.0166 18.5831L38.8778 18.4788C38.7279 18.3854 38.5464 18.3259 38.3493 18.3261L37.1129 18.3277ZM12.5869 23.3493L12.0018 23.2387L10.0209 22.8652L17.2369 22.2273L17.2752 20.7995L10.732 19.8721L17.2869 19.2087L17.3066 17.781L10.7928 16.9355L11.943 16.8013L12.5787 16.7263L12.5776 15.8171C12.5769 15.2608 13.0256 14.8167 13.5656 14.8159L33.1222 14.7916C33.6664 14.7909 34.113 15.2324 34.1137 15.7904L34.1162 17.7865L38.2236 17.7814C38.6277 17.781 39.0217 17.9433 39.3169 18.2351L39.3169 18.2361L46.04 24.9074C46.3331 25.2031 46.5008 25.6044 46.5014 26.024L46.502 26.5602L12.5909 26.6022L12.5869 23.3493Z" stroke="black" stroke-width="1.4378"/>
</svg>
