<svg width="29" height="28" viewBox="0 0 29 28" fill="none" xmlns="http://www.w3.org/2000/svg">
<path d="M14.998 10.8952C12.7265 10.8952 10.8932 12.7285 10.8932 15C10.8932 17.2715 12.7265 19.1048 14.998 19.1048C17.2695 19.1048 19.1028 17.2715 19.1028 15C19.1028 12.7285 17.2695 10.8952 14.998 10.8952ZM14.998 17.6678C13.529 17.6678 12.3302 16.469 12.3302 15C12.3302 13.531 13.529 12.3322 14.998 12.3322C16.467 12.3322 17.6658 13.531 17.6658 15C17.6658 16.469 16.467 17.6678 14.998 17.6678ZM19.2709 9.77047C18.7405 9.77047 18.3122 10.1988 18.3122 10.7291C18.3122 11.2595 18.7405 11.6878 19.2709 11.6878C19.8012 11.6878 20.2295 11.2615 20.2295 10.7291C20.2297 10.6032 20.205 10.4784 20.1569 10.3621C20.1088 10.2457 20.0382 10.1399 19.9491 10.0509C19.8601 9.96185 19.7543 9.89124 19.6379 9.84312C19.5216 9.795 19.3968 9.77031 19.2709 9.77047ZM22.9994 15C22.9994 13.8953 23.0094 12.8005 22.9474 11.6978C22.8853 10.4169 22.5931 9.28014 21.6565 8.3435C20.7179 7.40487 19.5831 7.11467 18.3022 7.05263C17.1975 6.99059 16.1027 7.0006 15 7.0006C13.8953 7.0006 12.8005 6.99059 11.6978 7.05263C10.4169 7.11467 9.28014 7.40687 8.3435 8.3435C7.40487 9.28214 7.11467 10.4169 7.05263 11.6978C6.99059 12.8025 7.0006 13.8973 7.0006 15C7.0006 16.1027 6.99059 17.1995 7.05263 18.3022C7.11467 19.5831 7.40687 20.7199 8.3435 21.6565C9.28214 22.5951 10.4169 22.8853 11.6978 22.9474C12.8025 23.0094 13.8973 22.9994 15 22.9994C16.1047 22.9994 17.1995 23.0094 18.3022 22.9474C19.5831 22.8853 20.7199 22.5931 21.6565 21.6565C22.5951 20.7179 22.8853 19.5831 22.9474 18.3022C23.0114 17.1995 22.9994 16.1047 22.9994 15ZM21.2382 19.7192C21.0921 20.0834 20.916 20.3556 20.6338 20.6358C20.3516 20.918 20.0814 21.0941 19.7172 21.2402C18.6645 21.6585 16.1648 21.5644 14.998 21.5644C13.8312 21.5644 11.3295 21.6585 10.2768 21.2422C9.91256 21.0961 9.64038 20.92 9.36019 20.6378C9.078 20.3556 8.90188 20.0854 8.75578 19.7212C8.3395 18.6665 8.43356 16.1668 8.43356 15C8.43356 13.8332 8.3395 11.3315 8.75578 10.2788C8.90188 9.91456 9.078 9.64238 9.36019 9.36219C9.64238 9.082 9.91256 8.90388 10.2768 8.75778C11.3295 8.3415 13.8312 8.43556 14.998 8.43556C16.1648 8.43556 18.6665 8.3415 19.7192 8.75778C20.0834 8.90388 20.3556 9.08 20.6358 9.36219C20.918 9.64438 21.0941 9.91456 21.2402 10.2788C21.6565 11.3315 21.5624 13.8332 21.5624 15C21.5624 16.1668 21.6565 18.6665 21.2382 19.7192Z" fill="black"/>
</svg>
